<?xml version="1.0" encoding="UTF-8"?>
<svg width="16px" height="16px" viewBox="0 0 16 16" version="1.1" xmlns="http://www.w3.org/2000/svg" xmlns:xlink="http://www.w3.org/1999/xlink">
    <title>square-plus-solid</title>
    <g id="Symbols" stroke="none" stroke-width="1" fill="none" fill-rule="evenodd">
        <g id="Button" transform="translate(-16.000000, -16.000000)" fill="#1C1F2C" fill-rule="nonzero">
            <g id="square-plus-solid" transform="translate(16.000000, 16.000000)">
                <path d="M13.7142857,0 C14.975,0 16,1.02321429 16,2.28571429 L16,13.7142857 C16,14.975 14.975,16 13.7142857,16 L2.28571429,16 C1.02321429,16 0,14.975 0,13.7142857 L0,2.28571429 C0,1.02321429 1.02321429,0 2.28571429,0 L13.7142857,0 Z M8,12 C8.475,12 8.85714286,11.6178571 8.85714286,11.1428571 L8.85714286,8.85714286 L11.1428571,8.85714286 C11.6178571,8.85714286 12,8.475 12,8 C12,7.525 11.6178571,7.14285714 11.1428571,7.14285714 L8.85714286,7.14285714 L8.85714286,4.85714286 C8.85714286,4.38214286 8.475,4 8,4 C7.525,4 7.14285714,4.38214286 7.14285714,4.85714286 L7.14285714,7.14285714 L4.85714286,7.14285714 C4.38214286,7.14285714 4,7.525 4,8 C4,8.475 4.38214286,8.85714286 4.85714286,8.85714286 L7.14285714,8.85714286 L7.14285714,11.1428571 C7.14285714,11.6178571 7.525,12 8,12 Z" id="Shape"></path>
            </g>
        </g>
    </g>
</svg>