<?xml version="1.0" encoding="UTF-8"?>
<svg width="54px" height="32px" viewBox="0 0 54 32" version="1.1" xmlns="http://www.w3.org/2000/svg" xmlns:xlink="http://www.w3.org/1999/xlink">
    <title>battery-empty-solid</title>
    <g id="Show" stroke="none" stroke-width="1" fill="none" fill-rule="evenodd">
        <g transform="translate(-1050.000000, -456.000000)" fill="#EDF0FF" fill-rule="nonzero" id="content">
            <g transform="translate(656.000000, 144.000000)">
                <g id="part-1" transform="translate(0.000000, 272.000000)">
                    <g id="battery-empty-solid" transform="translate(394.000000, 40.000000)">
                        <path d="M43.5,0 C47.64375,0 51,3.58 51,8 L51,9.6 C52.659375,9.6 54,11.03 54,12.8 L54,19.2 C54,20.97 52.659375,22.4 51,22.4 L51,24 C51,28.42 47.64375,32 43.5,32 L7.5,32 C3.358125,32 0,28.42 0,24 L0,8 C0,3.58 3.358125,0 7.5,0 L43.5,0 Z M6,24 C6,24.88 6.67125,25.6 7.5,25.6 L43.5,25.6 C44.325,25.6 45,24.88 45,24 L45,8 C45,7.12 44.325,6.4 43.5,6.4 L7.5,6.4 C6.67125,6.4 6,7.12 6,8 L6,24 Z" id="Shape"></path>
                    </g>
                </g>
            </g>
        </g>
    </g>
</svg>