<?xml version="1.0" encoding="UTF-8"?>
<svg width="64px" height="64px" viewBox="0 0 64 64" version="1.1" xmlns="http://www.w3.org/2000/svg" xmlns:xlink="http://www.w3.org/1999/xlink">
    <title>Group 4</title>
    <g id="Index" stroke="none" stroke-width="1" fill="none" fill-rule="evenodd">
        <g transform="translate(-288.000000, -352.000000)" id="system-health">
            <g transform="translate(256.000000, 320.000000)">
                <g id="Group" transform="translate(32.000000, 32.000000)">
                    <rect id="Rectangle" x="0" y="0" width="64" height="64"></rect>
                    <g id="heart-pulse-solid" transform="translate(0.000000, 5.000000)" fill="#12141A" fill-rule="nonzero">
                        <path d="M40.0505937,26.9477462 L33.8214408,39.6072195 C33.0702672,41.1339902 30.8950015,41.0856424 30.206207,39.5277002 L23.0869966,23.4488967 L19.3305036,32.577713 L7.0672105,32.5713514 L29.1186366,55.7528192 C30.701239,57.4157269 33.2889064,57.4157269 34.8727588,55.7528192 L56.9241849,32.5713514 L42.9107786,32.572013 L40.0505937,26.9477462 Z M57.9017482,3.92658926 C51.1063087,-2.05071786 40.7131365,-0.971799932 34.4627323,5.58822466 L32.000073,8.17482861 L29.5374137,5.58822466 C23.2870095,-0.971799932 12.8988377,-2.05071786 6.09964792,3.92658926 C-1.08081647,10.2423305 -1.89711926,21.0696791 3.52073113,28.499963 L16.64658,28.499963 L21.1381205,17.5262989 C21.826665,15.8875651 24.0958118,15.8570296 24.8308593,17.4785873 L32.10758,33.9422642 L38.2417267,21.4736372 C38.9772742,19.9786743 41.0894108,19.9786743 41.8257085,21.4736372 L45.2846822,28.5031438 L60.4731645,28.5031438 C65.9022656,21.0696791 65.0772122,10.2423305 57.9017482,3.92658926 Z" id="Shape"></path>
                    </g>
                </g>
            </g>
        </g>
    </g>
</svg>