<?xml version="1.0" encoding="UTF-8"?>
<svg width="64px" height="64px" viewBox="0 0 64 64" version="1.1" xmlns="http://www.w3.org/2000/svg" xmlns:xlink="http://www.w3.org/1999/xlink">
    <title>Group 2</title>
    <g id="Show" stroke="none" stroke-width="1" fill="none" fill-rule="evenodd">
        <g transform="translate(-1216.000000, -448.000000)" id="content">
            <g transform="translate(656.000000, 144.000000)">
                <g id="part-1" transform="translate(528.000000, 272.000000)">
                    <g id="Group-2" transform="translate(32.000000, 32.000000)">
                        <g id="Group" transform="translate(9.000000, 0.000000)" fill="#EDF0FF" fill-rule="nonzero">
                            <path d="M26.82375,2.76617995 C25.790475,-0.843792601 20.355,-0.999505702 19.1863125,2.76617995 C13.072625,22.4717444 0,27.8431321 0,41.7287408 C0,54.0257901 10.28675,64 23,64 C35.71325,64 46,54.0315044 46,41.7287408 C46,27.7717041 32.961875,22.5717436 26.82375,2.76617995 Z M11.5,33.1430918 C11.5,31.2416777 13.0366875,29.8431169 14.95,29.8431169 C16.8633125,29.8431169 18.4,31.2431062 18.4,33.1430918 C18.4,35.0430773 16.861875,36.5716372 14.95,36.5716372 C13.038125,36.5716372 11.5,35.0430773 11.5,33.1430918 Z M17.724375,49.6143951 C17.27875,50.0572489 16.689375,50.1572481 16.1,50.1572481 C15.510625,50.1572481 14.922975,49.934107 14.4741875,49.4875389 C13.57575,48.5946886 13.57575,47.1489853 14.4741875,46.2561349 L28.2741875,32.670524 C29.172625,31.7776736 30.6288125,31.7776736 31.5258125,32.670524 C32.42425,33.5633743 32.42425,35.0090776 31.5258125,35.901928 L17.724375,49.6143951 Z M31.05,52.442945 C29.1366875,52.442945 27.6,50.9158138 27.6,49.1429701 C27.6,47.241556 29.1366875,45.8429952 31.05,45.8429952 C32.9633125,45.8429952 34.5,47.3701265 34.5,49.1429701 C34.5,51.0429557 32.961875,52.442945 31.05,52.442945 Z" id="Shape"></path>
                        </g>
                        <rect id="Rectangle" x="0" y="0" width="64" height="64"></rect>
                    </g>
                </g>
            </g>
        </g>
    </g>
</svg>