<svg height="64" viewBox="0 0 64 64" width="64" xmlns="http://www.w3.org/2000/svg"><g fill="none" fill-rule="evenodd"><path d="m30.086325 27.9994822h13.9484282c1.6638035 0 3.1649796 1.0374823 3.6403521 2.5874559.688039 1.5624734.250196 3.3249434-1.0007841 4.4249247l-32.0250906 27.9995232c-1.4136075 1.2249791-3.4814776 1.3249774-4.99266161.2249961-1.51243494-1.0999812-2.06286619-3.0999472-1.32603891-4.812418l9.62128792-22.4246181h-14.0610163c-1.55496827 0-3.04826322-1.0374824-3.63484779-2.587456-.58658457-1.5624734-.14381267-3.3249434 1.11162092-4.4249246l32.02133767-27.99727325c1.4136075-1.22972906 3.4777247-1.32335247 4.9914106-.22549616 1.5136859 1.09823129 2.0641172 3.0944473 1.3260389 4.81191805z" fill="#12141a" fill-rule="nonzero" transform="translate(8)"/><path d="m0 0h64v64h-64z"/></g></svg>