<?xml version="1.0" encoding="UTF-8"?>
<svg width="64px" height="64px" viewBox="0 0 64 64" version="1.1" xmlns="http://www.w3.org/2000/svg" xmlns:xlink="http://www.w3.org/1999/xlink">
    <title>Group 3</title>
    <g id="Show" stroke="none" stroke-width="1" fill="none" fill-rule="evenodd">
        <g transform="translate(-1216.000000, -640.000000)" id="content">
            <g transform="translate(656.000000, 144.000000)">
                <g id="part-1" transform="translate(528.000000, 463.000000)">
                    <g id="Group-3" transform="translate(32.000000, 33.000000)">
                        <g id="Group" transform="translate(14.000000, 0.000000)" fill="#EDF0FF" fill-rule="nonzero">
                            <path d="M20,40.3600338 L20,19.9997794 C20,18.9061501 19.09375,18 18,18 C16.90625,18 16,18.9061501 16,19.9997794 L16,40.3600338 C13.6725,41.1880675 12,43.3909495 12,46.0006617 C12,49.3127964 14.6875,52 18,52 C21.3125,52 24,49.3127964 24,46.0006617 C24,43.3847002 22.325,41.1849428 20,40.3600338 Z M32,34.8738016 L32,14.0246527 C32,6.27728429 25.735,0 18.1125,0 C10.49,0 4,6.27728429 4,14.0246527 L4,34.8738016 C1.53125,37.9729994 0,41.8235179 0,46.0810018 C0,56.0360008 8.0625,64 18,64 C27.9375,64 36,56.0360008 36,46.0810018 C36,41.8235179 34.475,37.9542164 32,34.8738016 Z M18,56 C12.48375,56 8,51.506303 8,46.0905651 C8,42.8959937 9.53125,39.9670103 12,38.1041368 L12,14.0133107 C12,10.6934621 14.6875,8 18,8 C21.3125,8 24,10.6934621 24,14.0133107 L24,38.1041368 C26.46875,39.951977 28,42.8959937 28,46.0905651 C28,51.5025447 23.5125,56 18,56 Z" id="Shape"></path>
                        </g>
                        <rect id="Rectangle" x="0" y="0" width="64" height="64"></rect>
                    </g>
                </g>
            </g>
        </g>
    </g>
</svg>