<?xml version="1.0" encoding="UTF-8"?>
<svg width="24px" height="24px" viewBox="0 0 24 24" version="1.1" xmlns="http://www.w3.org/2000/svg" xmlns:xlink="http://www.w3.org/1999/xlink">
    <title>Icons/ic-arrow-right</title>
    <g id="Icons/ic-arrow-right" stroke="none" stroke-width="1" fill="none" fill-rule="evenodd">
        <path d="M13.4545455,18.5 C13.7487232,18.5 14.0510725,18.3712074 14.3125638,18.1216718 L19.6241062,12.8894737 C19.8529111,12.6721362 20,12.3260062 20,12.0040248 C20,11.6739938 19.8529111,11.3278638 19.6241062,11.1105263 L14.3207354,5.88637771 C14.0592441,5.62879257 13.7487232,5.5 13.4545455,5.5 C12.7272727,5.5 12.2451481,5.99102167 12.2451481,6.64303406 C12.2451481,7.01331269 12.4004086,7.29504644 12.6292135,7.5123839 L14.4923391,9.34767802 L16.1756895,10.8851393 L14.4187947,10.7885449 L5.28294178,10.7885449 C4.51481103,10.7885449 4,11.2795666 4,12.0040248 C4,12.728483 4.51481103,13.2114551 5.28294178,13.2114551 L14.4187947,13.2114551 L16.1838611,13.1229102 L14.4923391,14.652322 L12.6292135,16.4795666 C12.4085802,16.7049536 12.2451481,16.9866873 12.2451481,17.3489164 C12.2451481,18.0009288 12.7272727,18.5 13.4545455,18.5 Z" id="Shape" fill="#000000"></path>
    </g>
</svg>