<?xml version="1.0" encoding="UTF-8"?>
<svg width="32px" height="32px" viewBox="0 0 32 32" version="1.1" xmlns="http://www.w3.org/2000/svg" xmlns:xlink="http://www.w3.org/1999/xlink">
    <title>Icons/ic-arrow-up-right</title>
    <g id="Icons/ic-arrow-up-right" stroke="none" stroke-width="1" fill="none" fill-rule="evenodd">
        <path d="M16,28 C22.5799043,28 28,22.5824964 28,16.0057389 C28,9.42898135 22.5684211,4 16,4 C9.42009569,4 4,9.42898135 4,16.0057389 C4,22.5824964 9.42009569,28 16,28 Z M11.9349282,21.0215208 C11.2229665,21.0215208 10.6717703,20.5164993 10.6717703,19.7474892 C10.6717703,19.4146341 10.8210526,19.0817791 11.0736842,18.8292683 L15.322488,14.5939742 L17.1023923,12.9870875 L15.5062201,13.1936872 L13.508134,13.1936872 C12.738756,13.1936872 12.2449761,12.7460545 12.2449761,12.045911 C12.2449761,11.3457676 12.738756,10.9096126 13.508134,10.9096126 L19.35311,10.9096126 C20.2717703,10.9096126 20.8344498,11.3916786 20.8344498,12.3672884 L20.8344498,18.1865136 C20.8344498,18.9440459 20.3866029,19.4605452 19.6976077,19.4605452 C18.9856459,19.4605452 18.5492823,18.9555237 18.5492823,18.1979914 L18.5492823,16.3156385 L18.7330144,14.6284075 L17.1368421,16.3959828 L12.922488,20.6083214 C12.6354067,20.8952654 12.3253589,21.0215208 11.9349282,21.0215208 Z" id="Shape" fill="#FFFFFF"></path>
    </g>
</svg>