<?xml version="1.0" encoding="UTF-8"?>
<svg width="24px" height="24px" viewBox="0 0 24 24" version="1.1" xmlns="http://www.w3.org/2000/svg" xmlns:xlink="http://www.w3.org/1999/xlink">
    <title>Icons/ic-add</title>
    <g id="Icons/ic-add" stroke="none" stroke-width="1" fill="none" fill-rule="evenodd">
        <path d="M17.240434,20 C19.0679612,20 20,19.0770988 20,17.2678469 L20,6.72301542 C20,4.9229012 19.0679612,4 17.240434,4 L6.75956596,4 C4.93203883,4 4,4.91376356 4,6.72301542 L4,17.2678469 C4,19.0770988 4.93203883,20 6.75956596,20 L17.240434,20 Z M11.9954312,16.2901199 C11.4928612,16.2901199 11.2095945,15.9246145 11.2095945,15.4129069 L11.2095945,12.7812678 L8.44089092,12.7812678 C7.92004569,12.7812678 7.55454026,12.4980011 7.55454026,12.0045688 C7.55454026,11.4928612 7.90177042,11.2004569 8.44089092,11.2004569 L11.2095945,11.2004569 L11.2095945,8.41347801 C11.2095945,7.89263278 11.4928612,7.53626499 11.9954312,7.53626499 C12.4980011,7.53626499 12.7995431,7.88349515 12.7995431,8.41347801 L12.7995431,11.2004569 L15.5773844,11.2004569 C16.1256425,11.2004569 16.463735,11.4928612 16.463735,12.0045688 C16.463735,12.4980011 16.1073672,12.7812678 15.5773844,12.7812678 L12.7995431,12.7812678 L12.7995431,15.4129069 C12.7995431,15.9428898 12.4980011,16.2901199 11.9954312,16.2901199 Z" id="Shape" fill="#000000"></path>
    </g>
</svg>