<?xml version="1.0" encoding="UTF-8"?>
<svg width="24px" height="24px" viewBox="0 0 24 24" version="1.1" xmlns="http://www.w3.org/2000/svg" xmlns:xlink="http://www.w3.org/1999/xlink">
    <title>Icons/ic-battery</title>
    <g id="Icons/ic-battery" stroke="none" stroke-width="1" fill="none" fill-rule="evenodd">
        <path d="M16.3607165,17 C17.5528104,17 18.4237183,16.8547215 19.0599135,16.2312349 C19.7022854,15.6016949 19.8381717,14.7602906 19.8381717,13.5920097 L19.8381717,10.4079903 C19.8381717,9.23365617 19.7022854,8.38619855 19.0599135,7.76876513 C18.4237183,7.13922518 17.5528104,7 16.3607165,7 L5.46510191,7 C4.29153799,7 3.41445337,7.14527845 2.77825818,7.76876513 C2.142063,8.39225182 2,9.23365617 2,10.3958838 L2,13.5920097 C2,14.7602906 2.13588635,15.6077482 2.77825818,16.2312349 C3.42063002,16.8547215 4.28536133,17 5.47745522,17 L16.3607165,17 Z M16.5336628,15.6138015 L5.31068561,15.6138015 C4.66213712,15.6138015 4.13094503,15.5230024 3.80975911,15.2142857 C3.49474985,14.905569 3.41445337,14.3970944 3.41445337,13.7554479 L3.41445337,10.2506053 C3.41445337,9.60290557 3.5009265,9.08837772 3.80975911,8.77966102 C4.12476838,8.47094431 4.66213712,8.38014528 5.31686226,8.38014528 L16.5336628,8.38014528 C17.1760346,8.38014528 17.7072267,8.47094431 18.0284126,8.77966102 C18.3434219,9.08837772 18.4237183,9.60290557 18.4237183,10.2384988 L18.4237183,13.7554479 C18.4237183,14.3970944 18.3372452,14.905569 18.0284126,15.2142857 C17.7134033,15.5290557 17.1760346,15.6138015 16.5336628,15.6138015 Z M20.7893762,13.598063 C21.3082149,13.5738499 22,12.9200969 22,11.9455206 C22,10.9709443 21.3082149,10.3232446 20.7893762,10.2929782 L20.7893762,13.598063 Z" id="Shape" fill="#000000"></path>
    </g>
</svg>