<?xml version="1.0" encoding="UTF-8"?>
<svg width="24px" height="24px" viewBox="0 0 24 24" version="1.1" xmlns="http://www.w3.org/2000/svg" xmlns:xlink="http://www.w3.org/1999/xlink">
    <title>Icons/ic-devices</title>
    <g id="Icons/ic-devices" stroke="none" stroke-width="1" fill="none" fill-rule="evenodd">
        <path d="M18.2729869,11.3009709 C19.424329,11.3009709 20,10.7252998 20,9.5374072 L20,5.76356368 C20,4.56653341 19.424329,4 18.2729869,4 L14.4260423,4 C13.2747002,4 12.6990291,4.56653341 12.6990291,5.76356368 L12.6990291,9.5374072 C12.6990291,10.7252998 13.2747002,11.3009709 14.4260423,11.3009709 L18.2729869,11.3009709 Z M9.57395774,11.3009709 C10.7252998,11.3009709 11.3009709,10.7252998 11.3009709,9.5374072 L11.3009709,5.76356368 C11.3009709,4.56653341 10.7252998,4 9.57395774,4 L5.72701314,4 C4.57567105,4 4,4.56653341 4,5.76356368 L4,9.5374072 C4,10.7252998 4.57567105,11.3009709 5.72701314,11.3009709 L9.57395774,11.3009709 Z M9.57395774,20 C10.7252998,20 11.3009709,19.424329 11.3009709,18.2364363 L11.3009709,14.4625928 C11.3009709,13.2655625 10.7252998,12.6990291 9.57395774,12.6990291 L5.72701314,12.6990291 C4.57567105,12.6990291 4,13.2655625 4,14.4625928 L4,18.2364363 C4,19.424329 4.57567105,20 5.72701314,20 L9.57395774,20 Z M18.2729869,20 C19.424329,20 20,19.424329 20,18.2364363 L20,14.4625928 C20,13.2655625 19.424329,12.6990291 18.2729869,12.6990291 L14.4260423,12.6990291 C13.2747002,12.6990291 12.6990291,13.2655625 12.6990291,14.4625928 L12.6990291,18.2364363 C12.6990291,19.424329 13.2747002,20 14.4260423,20 L18.2729869,20 Z" id="Shape" fill="#000000"></path>
    </g>
</svg>