<?xml version="1.0" encoding="UTF-8"?>
<svg width="24px" height="24px" viewBox="0 0 24 24" version="1.1" xmlns="http://www.w3.org/2000/svg" xmlns:xlink="http://www.w3.org/1999/xlink">
    <title>Icons/ic-humidity</title>
    <g id="Icons/ic-humidity" stroke="none" stroke-width="1" fill="none" fill-rule="evenodd">
        <path d="M11.2971352,2.87537003 L9.24045455,6.10362493 L9.24045455,6.10362493 C7.84280682,8.29422129 5.5,12.3352838 5.5,14.7774674 C5.5,18.4830996 8.41646136,21.5 12,21.5 C15.5835386,21.5 18.5,18.4833897 18.5,14.7774674 C18.5,12.3352838 16.1571341,8.2939892 14.7595455,6.10362493 L12.702768,2.87535639 C12.4554704,2.48720402 11.9403364,2.37301866 11.5521841,2.62031626 C11.4495672,2.68569496 11.3625119,2.77275191 11.2971352,2.87537003 Z M10.7406545,7.02610192 L11.9997932,5.05309142 L13.2589318,7.02610192 C14.2168545,8.50159512 15.0662864,10.0427122 15.8026182,11.636311 L8.19702727,11.636311 C8.93335909,10.0429443 9.78279091,8.50162413 10.7407136,7.02610192 L10.7406545,7.02610192 Z" id="Fill-1" fill="#000000"></path>
    </g>
</svg>