<?xml version="1.0" encoding="UTF-8"?>
<svg width="24px" height="24px" viewBox="0 0 24 24" version="1.1" xmlns="http://www.w3.org/2000/svg" xmlns:xlink="http://www.w3.org/1999/xlink">
    <title>Icons/ic-notification</title>
    <g id="Icons/ic-notification" stroke="none" stroke-width="1" fill="none" fill-rule="evenodd">
        <path d="M17.8560311,16.9424712 C18.5719844,16.9424712 19,16.5582791 19,15.973987 C19,15.2056028 18.2684825,14.5172586 17.6225681,13.8529265 C17.1245136,13.3326663 17,12.2521261 16.9299611,11.3396698 C16.8521401,8.47423712 16.0894942,6.48924462 14.151751,5.76888444 C13.8638132,4.77638819 13.0856031,4 12.0038911,4 C10.9143969,4 10.1439689,4.77638819 9.85603113,5.76888444 C7.91828794,6.48924462 7.15564202,8.47423712 7.07782101,11.3396698 C7.0077821,12.2521261 6.88326848,13.3326663 6.38521401,13.8529265 C5.73929961,14.5172586 5,15.2056028 5,15.973987 C5,16.5582791 5.43579767,16.9424712 6.15175097,16.9424712 L17.8560311,16.9424712 Z M12.0038911,20 C13.2723735,20 14.1984436,19.0555278 14.2918288,17.9829915 L9.71595331,17.9829915 C9.80933852,19.0555278 10.7354086,20 12.0038911,20 Z" id="Shape" fill="#000000"></path>
    </g>
</svg>