<?xml version="1.0" encoding="UTF-8"?>
<svg width="24px" height="24px" viewBox="0 0 24 24" version="1.1" xmlns="http://www.w3.org/2000/svg" xmlns:xlink="http://www.w3.org/1999/xlink">
    <title>Icons/ic-temperature</title>
    <g id="Icons/ic-temperature" stroke="none" stroke-width="1" fill="none" fill-rule="evenodd">
        <path d="M14.9997956,14.5203415 L14.9997956,4.85690784 C14.9997956,3.27936904 13.6564284,2 11.9999761,2 C10.3435237,2 9.00015659,3.27936904 9.00015659,4.85690784 L9.00015659,14.5203415 C8.08895542,15.2961634 7.54898791,16.3925075 7.50305467,17.5557489 C7.45805738,18.7190361 7.91177408,19.8492745 8.75923508,20.6876056 C9.60763203,21.5259361 10.7775616,22 12,22 C13.2224385,22 14.3923681,21.5259361 15.2407651,20.6876056 C16.0882021,19.8492745 16.5419428,18.7190132 16.4969455,17.5557489 C16.4510098,16.3924617 15.9110447,15.2961177 14.9998436,14.5203415 L14.9997956,14.5203415 Z M12.7499309,11.2849505 L11.2500212,11.2849505 L11.2500212,4.85690784 C11.2500212,4.46228887 11.585617,4.14268088 11.9999761,4.14268088 C12.4143351,4.14268088 12.7499309,4.46228887 12.7499309,4.85690784 L12.7499309,11.2849505 Z" id="Shape" fill="#000000"></path>
    </g>
</svg>