<?xml version="1.0" encoding="UTF-8"?>
<svg width="87px" height="42px" viewBox="0 0 87 42" version="1.1" xmlns="http://www.w3.org/2000/svg" xmlns:xlink="http://www.w3.org/1999/xlink">
    <title>Group 4</title>
    <defs>
        <filter x="-8.4%" y="-18.8%" width="116.7%" height="137.5%" filterUnits="objectBoundingBox" id="filter-1">
            <feOffset dx="0" dy="2" in="SourceAlpha" result="shadowOffsetOuter1"></feOffset>
            <feGaussianBlur stdDeviation="2" in="shadowOffsetOuter1" result="shadowBlurOuter1"></feGaussianBlur>
            <feColorMatrix values="0 0 0 0 0   0 0 0 0 0   0 0 0 0 0  0 0 0 0.5 0" type="matrix" in="shadowBlurOuter1" result="shadowMatrixOuter1"></feColorMatrix>
            <feMerge>
                <feMergeNode in="shadowMatrixOuter1"></feMergeNode>
                <feMergeNode in="SourceGraphic"></feMergeNode>
            </feMerge>
        </filter>
    </defs>
    <g id="Symbols" stroke="none" stroke-width="1" fill="none" fill-rule="evenodd">
        <g id="logo" transform="translate(-66.000000, -11.000000)" fill="#EDF0FF" fill-rule="nonzero">
            <g filter="url(#filter-1)" id="Group-4">
                <g transform="translate(75.187500, 20.093750)">
                    <g id="IoT">
                        <polygon id="Path" points="0 22.90625 0 0 4.625 0 4.625 22.90625"></polygon>
                        <path d="M8.984375,14.375 C8.984375,12.9166667 9.34375,11.5052083 10.0625,10.140625 C10.78125,8.77604167 11.7994792,7.734375 13.1171875,7.015625 C14.4348958,6.296875 15.90625,5.9375 17.53125,5.9375 C20.0416667,5.9375 22.0989583,6.75260417 23.703125,8.3828125 C25.3072917,10.0130208 26.109375,12.0729167 26.109375,14.5625 C26.109375,17.0729167 25.2994792,19.1536458 23.6796875,20.8046875 C22.0598958,22.4557292 20.0208333,23.28125 17.5625,23.28125 C16.0416667,23.28125 14.5911458,22.9375 13.2109375,22.25 C11.8307292,21.5625 10.78125,20.5546875 10.0625,19.2265625 C9.34375,17.8984375 8.984375,16.28125 8.984375,14.375 Z M13.484375,14.609375 C13.484375,16.2552083 13.875,17.515625 14.65625,18.390625 C15.4375,19.265625 16.4010417,19.703125 17.546875,19.703125 C18.6927083,19.703125 19.6536458,19.265625 20.4296875,18.390625 C21.2057292,17.515625 21.59375,16.2447917 21.59375,14.578125 C21.59375,12.953125 21.2057292,11.703125 20.4296875,10.828125 C19.6536458,9.953125 18.6927083,9.515625 17.546875,9.515625 C16.4010417,9.515625 15.4375,9.953125 14.65625,10.828125 C13.875,11.703125 13.484375,12.9635417 13.484375,14.609375 Z" id="Shape"></path>
                        <polygon id="Path" points="30.734375 22.90625 30.734375 3.875 23.9375 3.875 23.9375 0 42.140625 0 42.140625 3.875 35.359375 3.875 35.359375 22.90625"></polygon>
                    </g>
                    <g id="hub" transform="translate(39.953125, 11.453125)">
                        <path d="M2.1953125,0 L2.1953125,4.2109375 C2.90364583,3.3828125 3.75,2.96875 4.734375,2.96875 C5.23958333,2.96875 5.6953125,3.0625 6.1015625,3.25 C6.5078125,3.4375 6.81380208,3.67708333 7.01953125,3.96875 C7.22526042,4.26041667 7.36588542,4.58333333 7.44140625,4.9375 C7.51692708,5.29166667 7.5546875,5.84114583 7.5546875,6.5859375 L7.5546875,11.453125 L5.359375,11.453125 L5.359375,7.0703125 C5.359375,6.20052083 5.31770833,5.6484375 5.234375,5.4140625 C5.15104167,5.1796875 5.00390625,4.99348958 4.79296875,4.85546875 C4.58203125,4.71744792 4.31770833,4.6484375 4,4.6484375 C3.63541667,4.6484375 3.30989583,4.73697917 3.0234375,4.9140625 C2.73697917,5.09114583 2.52734375,5.35807292 2.39453125,5.71484375 C2.26171875,6.07161458 2.1953125,6.59895833 2.1953125,7.296875 L2.1953125,11.453125 L0,11.453125 L0,0 L2.1953125,0 Z" id="Path"></path>
                        <path d="M15.7421875,11.453125 L15.7421875,10.2109375 C15.4401042,10.6536458 15.0429688,11.0026042 14.5507812,11.2578125 C14.0585938,11.5130208 13.5390625,11.640625 12.9921875,11.640625 C12.4348958,11.640625 11.9348958,11.5182292 11.4921875,11.2734375 C11.0494792,11.0286458 10.7291667,10.6848958 10.53125,10.2421875 C10.3333333,9.79947917 10.234375,9.1875 10.234375,8.40625 L10.234375,3.15625 L12.4296875,3.15625 L12.4296875,6.96875 C12.4296875,8.13541667 12.4700521,8.85026042 12.5507812,9.11328125 C12.6315104,9.37630208 12.7786458,9.58463542 12.9921875,9.73828125 C13.2057292,9.89192708 13.4765625,9.96875 13.8046875,9.96875 C14.1796875,9.96875 14.515625,9.86588542 14.8125,9.66015625 C15.109375,9.45442708 15.3125,9.19921875 15.421875,8.89453125 C15.53125,8.58984375 15.5859375,7.84375 15.5859375,6.65625 L15.5859375,3.15625 L17.78125,3.15625 L17.78125,11.453125 L15.7421875,11.453125 Z" id="Path"></path>
                        <path d="M20.4609375,11.453125 L20.4609375,0 L22.65625,0 L22.65625,4.125 C23.3333333,3.35416667 24.1354167,2.96875 25.0625,2.96875 C26.0729167,2.96875 26.9088542,3.33463542 27.5703125,4.06640625 C28.2317708,4.79817708 28.5625,5.84895833 28.5625,7.21875 C28.5625,8.63541667 28.2252604,9.7265625 27.5507812,10.4921875 C26.8763021,11.2578125 26.0572917,11.640625 25.09375,11.640625 C24.6197917,11.640625 24.1523438,11.5221354 23.6914062,11.2851562 C23.2304688,11.0481771 22.8333333,10.6979167 22.5,10.234375 L22.5,11.453125 L20.4609375,11.453125 Z M22.640625,7.125 C22.640625,7.984375 22.7760417,8.61979167 23.046875,9.03125 C23.4270833,9.61458333 23.9322917,9.90625 24.5625,9.90625 C25.046875,9.90625 25.4596354,9.69921875 25.8007812,9.28515625 C26.1419271,8.87109375 26.3125,8.21875 26.3125,7.328125 C26.3125,6.38020833 26.140625,5.69661458 25.796875,5.27734375 C25.453125,4.85807292 25.0130208,4.6484375 24.4765625,4.6484375 C23.9505208,4.6484375 23.5130208,4.85286458 23.1640625,5.26171875 C22.8151042,5.67057292 22.640625,6.29166667 22.640625,7.125 Z" id="Shape"></path>
                    </g>
                </g>
            </g>
        </g>
    </g>
</svg>