<?xml version="1.0" encoding="UTF-8"?>
<svg width="56px" height="49px" viewBox="0 0 56 49" version="1.1" xmlns="http://www.w3.org/2000/svg" xmlns:xlink="http://www.w3.org/1999/xlink">
    <title>chart-network-solid</title>
    <defs>
        <filter x="-8.4%" y="-18.8%" width="116.7%" height="137.5%" filterUnits="objectBoundingBox" id="filter-1">
            <feOffset dx="0" dy="2" in="SourceAlpha" result="shadowOffsetOuter1"></feOffset>
            <feGaussianBlur stdDeviation="2" in="shadowOffsetOuter1" result="shadowBlurOuter1"></feGaussianBlur>
            <feColorMatrix values="0 0 0 0 0   0 0 0 0 0   0 0 0 0 0  0 0 0 0.5 0" type="matrix" in="shadowBlurOuter1" result="shadowMatrixOuter1"></feColorMatrix>
            <feMerge>
                <feMergeNode in="shadowMatrixOuter1"></feMergeNode>
                <feMergeNode in="SourceGraphic"></feMergeNode>
            </feMerge>
        </filter>
    </defs>
    <g id="Symbols" stroke="none" stroke-width="1" fill="none" fill-rule="evenodd">
        <g id="logo" transform="translate(-4.000000, -8.000000)" fill="#12141A" fill-rule="nonzero">
            <g filter="url(#filter-1)" id="Group-5">
                <g id="chart-network-solid" transform="translate(13.325000, 17.750000)">
                    <path d="M16.2729688,3 C16.2729688,3.79980469 16.0764063,4.54160156 15.654375,5.15039062 L17.3425,8.8125 C17.9090625,8.68945312 18.49875,8.625 19.1,8.625 C21.1870313,8.625 23.0890625,9.40429688 24.5517188,10.6875 L29.298125,7.10742188 C29.2807813,7.02539062 29.275,6.890625 29.275,6.75 C29.275,4.67871094 30.9342188,3 32.975,3 C35.0157813,3 36.675,4.67871094 36.675,6.75 C36.675,8.81835938 35.0157813,10.5 32.975,10.5 C32.443125,10.5 31.9401563,10.3886719 31.4834375,10.1835938 L26.7428125,13.7109375 C27.1821875,14.7363281 27.425,15.8730469 27.425,17.0625 C27.425,17.9765625 27.2804688,18.8613281 27.0145313,19.6875 L31.1770313,22.21875 C31.7089063,21.9199219 32.3217188,21.75 32.975,21.75 C35.0157813,21.75 36.675,23.4316406 36.675,25.5 C36.675,27.5683594 35.0157813,29.25 32.975,29.25 C30.9342188,29.25 29.275,27.5683594 29.275,25.5 L29.275,25.4355469 L25.1067188,22.9042969 C23.5920313,24.4511719 21.45875,25.5 19.1,25.5 C15.1398438,25.5 11.8214063,22.6933594 10.983125,18.9375 L6.5778125,18.9375 C5.941875,20.0566406 4.74457813,20.8125 3.375,20.8125 C1.33132813,20.8125 -0.325,19.1308594 -0.325,17.0625 C-0.325,14.9941406 1.33132813,13.3125 3.375,13.3125 C4.74457813,13.3125 5.941875,14.0683594 6.5778125,15.1875 L10.983125,15.1875 C11.4109375,13.2539062 12.4978125,11.578125 13.989375,10.4003906 L12.30125,6.73828125 C10.4107813,6.56835938 8.925,4.96113281 8.925,3 C8.925,0.928710938 10.5842188,-0.75 12.625,-0.75 C14.6657813,-0.75 16.325,0.928710938 16.325,3 L16.2729688,3 Z M19.1,19.875 C20.6320313,19.875 21.875,18.6152344 21.875,17.0625 C21.875,15.5097656 20.6320313,14.25 19.1,14.25 C17.5679688,14.25 16.2729688,15.5097656 16.2729688,17.0625 C16.2729688,18.6152344 17.5679688,19.875 19.1,19.875 Z" id="Shape"></path>
                </g>
            </g>
        </g>
    </g>
</svg>