<svg width="227" height="138" viewBox="0 0 227 138" fill="none" xmlns="http://www.w3.org/2000/svg">
<path d="M108.376 61.7649L87.2334 75.0241L139.934 71.6205L108.376 61.7649Z" fill="#0EB5D9"/>
<path d="M91.1729 98.9115L93.4569 112.86L180.188 100.436L139.934 71.6205L91.1729 98.9115Z" fill="#0C9DBD"/>
<path d="M66.2581 112.86H93.457L91.1729 98.9115L66.2581 112.86Z" fill="#0EB5D9"/>
<path d="M139.934 71.6205L87.2334 75.0241L91.1728 98.9115L139.934 71.6205Z" fill="#0D91AE"/>
<path d="M87.2333 75.0241L61.627 108.245L66.2579 112.86L91.1728 98.9115L87.2333 75.0241Z" fill="#0D91AE"/>
<path d="M94.5884 57.4426L87.2334 75.0241L108.377 61.7649L94.5884 57.4426Z" fill="#0D91AE"/>
<path d="M42.7472 58.0272L31.1174 77.843L87.2336 75.0241L42.7472 58.0272Z" fill="#0D91AE"/>
<path d="M146.283 126.85L180.188 100.436L93.457 112.86L146.283 126.85Z" fill="#0EB5D9"/>
<path d="M63.4294 135.578C78.3909 124.344 93.4572 112.86 93.4572 112.86H66.2583L63.4294 135.578Z" fill="#0C9DBD"/>
<path d="M31.1174 77.8429L61.6272 108.245L87.2336 75.0241L31.1174 77.8429Z" fill="#0DA9CB"/>
<path d="M180.188 100.436L146.283 126.85L188.402 138H215.37L180.188 100.436Z" fill="#0DA9CB"/>
<path d="M180.188 100.436L215.37 138H227V132.3L217.549 107.744L180.188 100.436Z" fill="#0C9DBD"/>
<path d="M63.4294 135.578L63.136 138H96.5794L93.4571 112.86C93.4571 112.86 78.4118 124.323 63.4294 135.578Z" fill="#0EB5D9"/>
<path d="M131.971 138H188.402L146.283 126.85L131.971 138Z" fill="#0C9DBD"/>
<path d="M66.258 112.86L61.627 108.245L38.6819 138H60.1812C61.2499 137.186 62.3395 136.392 63.4082 135.578L66.258 112.86Z" fill="#0D91AE"/>
<path d="M60.2024 138H63.136L63.4294 135.578C62.3607 136.371 61.2711 137.186 60.2024 138Z" fill="#0D91AE"/>
<path d="M93.457 112.86L96.5793 138H131.971L146.283 126.85L93.457 112.86Z" fill="#0D91AE"/>
<path d="M0.293457 41.8239V79.1793L34.9522 55.0622L0.293457 41.8239Z" fill="#0D91AE"/>
<path d="M42.7472 58.0272L34.9522 55.0622L0.293457 79.1793V111.941L31.1175 77.8429L42.7472 58.0272Z" fill="#0EB5D9"/>
<path d="M61.6272 108.245L31.1174 77.8429L38.682 138L61.6272 108.245Z" fill="#0D91AE"/>
<path d="M31.1175 77.8429L0.293457 111.941V138L31.1175 77.8429Z" fill="#0D91AE"/>
<path d="M38.6821 138L31.1175 77.8429L0.293457 138H38.6821Z" fill="#0C9DBD"/>
<path d="M22.1279 19.1893L51.0661 44.1207L57.1429 13.9065L22.1279 19.1893Z" fill="#0DA9CB"/>
<path d="M57.143 13.9065L51.0662 44.1207L75.4153 28.5438L57.143 13.9065Z" fill="#0C9DBD"/>
<path d="M34.9519 55.0622L42.747 58.0272L51.0659 43.8493L34.9519 55.0622Z" fill="#0D91AE"/>
<path d="M42.7473 58.0272L87.2337 75.0241L51.0662 43.8493L42.7473 58.0272Z" fill="#0C9DBD"/>
<path d="M21.8555 18.8343L17.1617 14.7835L1.59253 28.3976L50.7937 43.7866L21.8555 18.8343Z" fill="#0EB5D9"/>
<path d="M17.1617 14.7835L0 0V27.8965L1.59254 28.3976L17.1617 14.7835Z" fill="#0C9DBD"/>
<path d="M87.2336 75.0241L94.5886 57.4426L51.0662 43.8493L87.2336 75.0241Z" fill="#0DA9CB"/>
<path d="M0.293457 27.9592V29.8593L1.886 28.4603L0.293457 27.9592Z" fill="#0D91AE"/>
<path d="M1.886 28.4603L0.293457 29.8593V41.8239L34.9522 55.0622L51.0662 43.8493L1.886 28.4603Z" fill="#0C9DBD"/>
<path d="M51.0662 43.8493L94.5886 57.4426L75.4153 28.5438L51.0662 43.8493Z" fill="#0D91AE"/>
</svg>
