<svg width="549" height="294" viewBox="0 0 549 294" fill="none" xmlns="http://www.w3.org/2000/svg">
<g clip-path="url(#clip0)" >
<path d="M284.182 183.694L432.365 144.853L235.899 113.254L284.182 183.694Z" fill="#4CA766"/>
<path d="M171.971 71.5932L190.566 83.707L174.344 58.8385L171.971 71.5932Z" fill="#469B5E"/>
<path d="M355.292 67.4911L227.307 80.1177L235.9 113.254L355.292 67.4911Z" fill="#5CCD7D"/>
<path d="M190.566 83.707L185.308 0L174.344 58.8385L190.566 83.707Z" fill="#4CA766"/>
<path d="M355.292 67.4912L432.365 144.853L455.064 29.227L355.292 67.4912Z" fill="#5CCD7D"/>
<path d="M235.899 113.254L227.307 80.1177L190.566 83.707L235.899 113.254Z" fill="#4CA766"/>
<path d="M432.365 144.853L355.292 67.4911L235.899 113.254L432.365 144.853Z" fill="#56BB73"/>
<path d="M185.308 0L149.721 20.8947L174.344 58.8385L185.308 0Z" fill="#5CCD7D"/>
<path d="M63.2869 0.833221L96.8219 51.9163L120.418 38.0719L63.2869 0.833221Z" fill="#469B5E"/>
<path d="M284.182 183.694L235.899 113.254L209.289 203.307L284.182 183.694Z" fill="#4CA766"/>
<path d="M235.899 113.254L190.566 83.707L198.197 206.191L209.289 203.307L235.899 113.254Z" fill="#4CA766"/>
<path d="M171.971 71.5932L158.25 145.366L198.197 206.191L190.566 83.707L171.971 71.5932Z" fill="#5CCD7D"/>
<path d="M432.365 144.853L514.375 249.711L549 119.407V36.0209L432.365 144.853Z" fill="#4CA766"/>
<path d="M355.292 67.4912L385.877 0H287.965L355.292 67.4912Z" fill="#4CA766"/>
<path d="M355.292 67.4912L287.965 0H206.66L227.307 80.1177L355.292 67.4912Z" fill="#4CA766"/>
<path d="M432.365 144.853L549 36.0209V0H531.303L455.063 29.2269L432.365 144.853Z" fill="#56BB73"/>
<path d="M531.303 0H460.834L455.063 29.2269L531.303 0Z" fill="#4CA766"/>
<path d="M455.064 29.2269L460.834 0H385.877L355.292 67.4912L455.064 29.2269Z" fill="#56BB73"/>
<path d="M185.308 0H136.128L149.721 20.8947L185.308 0Z" fill="#56BB73"/>
<path d="M120.418 38.0719L149.722 20.8947L136.128 0H62.71L63.287 0.833224L120.418 38.0719Z" fill="#4CA766"/>
<path d="M96.822 51.9163L63.2869 0.833224L62.0045 0H48.2827L64.0564 71.1445L96.822 51.9163Z" fill="#5CCD7D"/>
<path d="M171.971 71.5932L120.418 38.0719L96.822 51.9163L158.249 145.366L171.971 71.5932Z" fill="#4CA766"/>
<path d="M174.344 58.8384L149.722 20.8947L120.418 38.0719L171.971 71.5932L174.344 58.8384Z" fill="#56BB73"/>
<path d="M549 294V119.407L514.375 249.711L549 294Z" fill="#56BB73"/>
<path d="M0 0L64.0564 71.1445L48.2828 0H0Z" fill="#469B5E"/>
<path d="M96.822 51.9163L64.0564 71.1445L158.249 145.366L96.822 51.9163Z" fill="#56BB73"/>
<path d="M206.66 0H185.308L227.307 80.1177L206.66 0Z" fill="#469B5E"/>
<path d="M190.566 83.707L227.307 80.1177L185.308 0L190.566 83.707Z" fill="#5CCD7D"/>
</g>
<defs>
<clipPath id="clip0">
<rect width="549" height="294" fill="white"/>
</clipPath>
</defs>
</svg>
