<svg width="80" height="80" viewBox="0 0 80 80" fill="none" xmlns="http://www.w3.org/2000/svg">
<rect width="75" height="75" fill="black"/>
<path fill-rule="evenodd" clip-rule="evenodd" d="M5.11328 74.8877V77.4438V80H7.66945H77.4448H80.0009V77.4438V7.6685V5.11234H77.4448H74.8886V7.6685H77.4448V77.4438H7.66945V74.8877H5.11328Z" fill="url(#paint0_linear)"/>
<path fill-rule="evenodd" clip-rule="evenodd" d="M72.3315 2.55617H2.55617V72.3315H72.3315V2.55617ZM0 0V74.8877H74.8877V0H0Z" fill="white"/>
<path fill-rule="evenodd" clip-rule="evenodd" d="M46.4748 36.4895V37.6245H48.1903V25.5616H46.3717V30.083C46.1409 29.6989 45.2038 28.6979 43.5549 28.6979C41.0658 28.6979 39.417 30.6003 39.417 33.2866C39.417 35.9557 41.1854 37.8409 43.6717 37.8409C44.2116 37.8476 44.7457 37.7291 45.2321 37.4946C45.7184 37.2601 46.1438 36.9161 46.4748 36.4895ZM41.2493 33.3031C41.2493 31.5532 42.3176 30.3166 43.8359 30.3166C45.2897 30.3166 46.4411 31.4007 46.4384 33.3031C46.4384 34.9045 45.4539 36.2394 43.8524 36.2394C42.3671 36.2394 41.2493 35.0893 41.2493 33.3031Z" fill="white"/>
<path fill-rule="evenodd" clip-rule="evenodd" d="M12.2719 39.2597C13.7236 39.2597 15.0083 38.7259 15.0083 37.0736V36.4896C14.8084 36.7733 13.9407 37.841 12.2217 37.841C9.71957 37.841 8.05078 35.9558 8.05078 33.2867C8.05078 30.6004 9.78621 28.698 12.2554 28.698C13.8905 28.698 14.8249 29.6825 15.0921 30.0831V28.9151H16.8097V36.4724C16.8097 39.7427 14.8242 40.8275 12.2884 40.8275C11.1204 40.8275 9.90232 40.4434 9.13491 39.9927L9.71888 38.5912C10.5027 39.0186 11.3791 39.2481 12.2719 39.2597ZM12.4553 30.3166C10.9542 30.3166 9.86934 31.5176 9.86934 33.2709C9.86934 35.0571 10.9871 36.2251 12.4725 36.2251C14.0403 36.2251 15.0585 34.9884 15.0585 33.2709C15.0585 31.4846 13.9572 30.3166 12.4553 30.3166Z" fill="white"/>
<path d="M19.9275 33.8706V37.6245H18.1117V28.9151H19.8979V30.283C20.2318 29.4153 21.1497 28.698 22.3843 28.698V30.5331C20.4805 30.5331 19.9275 31.9847 19.9275 33.8706Z" fill="white"/>
<path fill-rule="evenodd" clip-rule="evenodd" d="M28.3222 32.6999C27.9883 32.399 27.2381 32.0658 26.2364 32.0658C24.2344 32.0658 22.8665 33.2529 22.8665 34.9396C22.8665 36.6915 24.3182 37.8423 26.1533 37.8423C27.2381 37.8423 27.9388 37.4754 28.3889 36.9753L28.5393 37.6259H30.1243V32.0032C30.1243 30.1009 29.2401 28.6993 26.6541 28.6993C25.2024 28.6993 24.0345 29.2489 23.331 29.6989L24.0317 30.9672C24.6659 30.6141 25.4999 30.2802 26.4672 30.2802C27.6214 30.2802 28.3222 30.8806 28.3222 31.8823V32.6999ZM28.3724 34.8853C28.3724 35.786 27.605 36.3872 26.5373 36.3872V36.3899C25.436 36.3899 24.6823 35.753 24.6823 34.8853C24.6823 34.0176 25.4133 33.3835 26.5174 33.3835C27.6214 33.3835 28.3724 33.9675 28.3724 34.8853Z" fill="white"/>
<path d="M38.6496 32.3853V37.6245H36.8475V32.2355C36.8475 31.0339 36.0973 30.3331 35.0963 30.3331C33.9449 30.3331 33.1939 31.1844 33.1939 32.3688V37.6245H31.3754V28.9151H33.1616V30.0494C33.5457 29.3658 34.4464 28.698 35.6143 28.698C37.8657 28.6994 38.6496 30.4856 38.6496 32.3853Z" fill="white"/>
<path d="M24.0592 42.6577C22.4069 42.6577 21.3063 43.9252 21.3063 45.5775C21.3063 47.2456 22.5072 48.5318 24.1231 48.5318C25.2409 48.5318 26.0248 47.8976 26.3903 47.5637L26.9076 49.0656C26.1085 49.7641 25.0834 50.1495 24.0221 50.1504C21.3695 50.1504 19.4671 48.1979 19.4671 45.5789C19.4671 42.9758 21.4196 41.0068 24.0056 41.0068C25.0711 40.9979 26.1033 41.3777 26.909 42.0751L26.3593 43.6099C25.9609 43.2245 25.1605 42.6577 24.0592 42.6577Z" fill="white"/>
<path fill-rule="evenodd" clip-rule="evenodd" d="M35.8884 45.5602C35.8884 42.8238 34.3371 41.0052 31.701 41.0052C29.315 41.0052 27.4627 42.9076 27.4648 45.6104C27.4648 48.2465 29.2669 50.1489 31.9868 50.1489C34.0555 50.1489 35.2069 48.9638 35.6239 48.2465L34.4223 47.3458C34.0871 47.8295 33.3361 48.5639 32.0177 48.5639C30.4664 48.5639 29.3479 47.5622 29.315 46.0109H35.872C35.8857 45.8611 35.8912 45.7107 35.8884 45.5602ZM29.3816 44.7592C29.4984 43.3913 30.4664 42.5236 31.7175 42.5236C32.9686 42.5236 33.9703 43.3246 34.0369 44.7592H29.3816Z" fill="white"/>
<path d="M44.3615 44.6925V49.9318H42.5595V44.5427C42.5595 43.3411 41.8085 42.6404 40.8076 42.6404C39.6568 42.6404 38.6503 43.4916 38.6503 44.676V49.9318H36.8283V41.2223H38.6146V42.3566C38.9986 41.6696 40.1549 41.0052 41.3228 41.0052C43.5776 41.0052 44.3615 42.7908 44.3615 44.6925Z" fill="white"/>
<path d="M48.2041 41.2223V39.4038H46.466V41.2223H45.2423V42.7242H46.466V46.4932C46.466 48.6292 47.0362 50.0472 49.155 50.0472C49.4512 50.0519 49.7472 50.0289 50.0392 49.9785V48.41C50.0392 48.41 49.8393 48.4265 49.6888 48.4265C48.7215 48.4265 48.2041 48.129 48.2041 46.7776V42.7242H49.9725V41.2223H48.2041Z" fill="white"/>
<path d="M52.8476 46.3842V49.932H51.0291V41.2225H52.8153V42.7965C53.1492 41.9295 54.0671 41.2115 55.3017 41.2115V43.0473C53.3986 43.0473 52.8476 44.501 52.8476 46.3842Z" fill="white"/>
<path d="M56.3178 41.2225H58.1364V49.9319H56.3178V41.2225Z" fill="white"/>
<path d="M60.6221 49.9318H58.6201L61.7736 45.4627L58.8036 41.2244H60.8743L62.8096 44.1787L64.745 41.2244H66.8136L63.8429 45.4627L66.9957 49.9339H64.9964L62.811 46.8141L60.6221 49.9318Z" fill="white"/>
<path d="M56.3392 37.453H58.1159V39.2296H56.3392V37.453Z" fill="white"/>
<defs>
<linearGradient id="paint0_linear" x1="5.11328" y1="80" x2="58.1" y2="93.1773" gradientUnits="userSpaceOnUse">
<stop stop-color="#0DA9CB"/>
<stop offset="1" stop-color="#56BB73"/>
</linearGradient>
</defs>
</svg>
