<?xml version="1.0" encoding="UTF-8"?>
<svg width="48px" height="48px" viewBox="0 0 48 48" version="1.1" xmlns="http://www.w3.org/2000/svg" xmlns:xlink="http://www.w3.org/1999/xlink">
    <title>Corporate/Logo</title>
    <g id="Corporate/Logo" stroke="none" stroke-width="1" fill="none" fill-rule="evenodd">
        <path d="M20.0736306,-7.4831381e-16 L27.9263694,7.4831381e-16 C34.5335781,-4.65410752e-16 37.2073582,0.742604889 39.8147656,2.13706163 C42.422173,3.53151837 44.4684816,5.57782696 45.8629384,8.18523437 C47.2573951,10.7926418 48,13.4664219 48,20.0736306 L48,27.9263694 C48,34.5335781 47.2573951,37.2073582 45.8629384,39.8147656 C44.4684816,42.422173 42.422173,44.4684816 39.8147656,45.8629384 C37.2073582,47.2573951 34.5335781,48 27.9263694,48 L20.0736306,48 C13.4664219,48 10.7926418,47.2573951 8.18523437,45.8629384 C5.57782696,44.4684816 3.53151837,42.422173 2.13706163,39.8147656 C0.742604889,37.2073582 3.10273835e-16,34.5335781 -4.98875873e-16,27.9263694 L4.98875873e-16,20.0736306 C-3.10273835e-16,13.4664219 0.742604889,10.7926418 2.13706163,8.18523437 C3.53151837,5.57782696 5.57782696,3.53151837 8.18523437,2.13706163 C10.7926418,0.742604889 13.4664219,4.65410752e-16 20.0736306,-7.4831381e-16 Z" id="Rectangle" fill-opacity="0.08" fill="#FFFFFF"></path>
        <path d="M24.4552386,27.9744735 C24.5818092,27.9744735 24.6826707,28.0753354 24.6826707,28.2019065 L24.6826707,28.2019065 L24.6827011,32.0238717 C25.4925499,32.3274651 26.0502577,33.0621595 26.0265257,33.9491442 C26.0265257,35.0635766 25.0890937,36 23.9756781,36 C22.8612499,36 21.9248305,35.0882833 21.9248305,33.9491442 C21.9248305,33.0631467 22.5062448,32.3037204 23.2913872,32.024859 L23.2913872,32.024859 L23.2913872,28.2019065 C23.2913872,28.0753354 23.3922487,27.9744735 23.5188192,27.9744735 L23.5188192,27.9744735 Z M27.1379365,26.48054 C27.2397903,26.4043999 27.3910826,26.4043999 27.4672224,26.48054 L27.4672224,26.48054 L30.1755836,29.188933 C30.9350068,28.834939 31.8724135,28.9615101 32.5052661,29.5686462 C32.9096894,29.9740786 33.1123997,30.4803629 33.1123997,31.0370731 C33.1123997,31.5937832 32.9354034,32.1257614 32.5289855,32.5311939 C32.1235547,32.9356188 31.6172726,33.13833 31.0605648,33.13833 C30.503857,33.13833 29.9975748,32.9366263 29.5921441,32.5311939 C29.1877209,32.1257614 28.9850106,31.6194772 28.9850106,31.062767 C28.9850106,30.7334797 29.0611504,30.4556309 29.1877209,30.1767695 L29.1877209,30.1767695 L26.4793647,27.4684019 C26.4032249,27.3665476 26.4032249,27.2152547 26.4793647,27.1391146 L26.4793647,27.1391146 Z M20.5058938,26.48054 C20.6077476,26.4043999 20.7590399,26.4043999 20.8351797,26.48054 L20.8351797,26.48054 L21.5440304,27.1133953 C21.6201701,27.2152496 21.6201701,27.3665425 21.5440304,27.4426826 L21.5440304,27.4426826 L18.8356741,30.1510503 C18.9622447,30.4299117 19.0383844,30.7334797 19.0383844,31.0370478 C19.0383844,31.5937579 18.8109625,32.1257614 18.4312509,32.5054746 C18.0258202,32.9098996 17.4948315,33.1126107 16.9628303,33.1126107 C16.430829,33.1126107 15.8998403,32.9109071 15.4944096,32.5054746 C14.6845607,31.6956223 14.6845607,30.4041924 15.4944096,29.5943401 C16.1272622,28.9614747 17.0636817,28.8349137 17.8231048,29.1889077 L17.8231048,29.1889077 Z M23.999443,21.3918769 C25.4392334,21.3918769 26.607049,22.5596975 26.607049,23.999494 C26.607049,25.4392398 25.4392334,26.6071111 23.999443,26.6071111 C22.5596525,26.6071111 21.3918369,25.4392905 21.3918369,23.999494 C21.3918369,22.5596975 22.5596525,21.3918769 23.999443,21.3918769 Z M33.972897,21.948506 C35.0872999,21.948506 35.998023,22.9106487 36,24.0230818 C36,25.1375147 35.0882872,26.073938 33.9491524,26.073938 C33.0631587,26.073938 32.3037355,25.4925212 32.0248753,24.7073756 L32.0248753,24.7073756 L28.201939,24.7073756 C28.0753684,24.7073756 27.9745069,24.6065136 27.9745069,24.4799425 L27.9745069,24.4799425 L27.9745069,23.5435192 C27.9745069,23.4169481 28.0753684,23.3160862 28.201939,23.3160862 L28.201939,23.3160862 L32.0484174,23.3150989 C32.3272776,22.5309658 33.0867008,21.948506 33.9726945,21.948506 Z M14.0508474,21.9238854 C14.9368411,21.9238854 15.6962643,22.5053023 15.9751245,23.2904479 L15.9751245,23.2904479 L19.7980608,23.2914352 C19.9246313,23.2914352 20.0254928,23.3922971 20.0254928,23.5188682 L20.0254928,23.5188682 L20.0254928,24.4552916 C20.0254928,24.5818626 19.9246313,24.6827246 19.7980608,24.6827246 L19.7980608,24.6827246 L15.9751245,24.682755 C15.6715324,25.4926047 14.9368411,26.0503174 14.0508474,26.0255955 C12.9364194,26.0255955 12,25.0881621 12,23.9747417 C12,22.8603088 12.9117126,21.9238854 14.0508474,21.9238854 Z M15.4943539,15.4688623 C16.2794962,14.6837167 17.6203338,14.6837167 18.4054761,15.4688623 C18.8098993,15.8742948 19.0126096,16.380579 19.0126096,16.9372892 C19.0126096,17.2665765 18.9364699,17.5444253 18.8098993,17.8232867 L18.8098993,17.8232867 L21.5440759,20.5306418 C21.6202157,20.632496 21.6202157,20.783789 21.5440759,20.8599291 L21.5440759,20.8599291 L20.8855041,21.5185036 C20.7836503,21.5946437 20.632358,21.5946437 20.5562182,21.5185036 L20.5562182,21.5185036 L17.847862,18.810136 C17.5690018,18.936707 17.2654351,19.0128471 16.9618683,19.0128471 C16.4050795,19.0128522 15.8987974,18.810136 15.4933666,18.4304228 C15.0889434,18.0249903 14.8862331,17.5187061 14.8862331,16.9619959 C14.8862331,16.4052857 15.1136551,15.8990014 15.4943539,15.4688623 Z M29.6446405,15.4688016 C30.4297828,14.6836559 31.7706204,14.6836559 32.5557627,15.4688016 C32.9601859,15.874234 33.1628962,16.3805183 33.1628962,16.9372285 C33.1628962,17.4939386 32.9354743,18.0259421 32.5557627,18.4056553 C32.150332,18.8100803 31.6440499,19.0127914 31.0873421,19.0127914 C30.7580562,19.0127914 30.4802085,18.9366513 30.2013483,18.8100803 L30.2013483,18.8100803 L27.4929921,21.5184479 C27.3911383,21.594588 27.239846,21.594588 27.1637062,21.5184479 L27.1637062,21.5184479 L26.4804734,20.8608809 C26.4043337,20.7590266 26.4043337,20.6077337 26.4804734,20.5315936 L26.4804734,20.5315936 L29.2402173,17.8232259 C29.1136468,17.5443645 29.037507,17.2407965 29.037507,16.9372285 C29.037507,16.3805183 29.2649289,15.8485148 29.6446405,15.4688016 Z M24.0241951,12 C25.1386233,12 26.0750427,12.9117167 26.0750427,14.0508563 C26.0750427,14.9368538 25.4936283,15.6962802 24.708486,15.9751415 L24.708486,15.9751415 L24.7074988,19.798094 C24.7074988,19.9246651 24.6066372,20.025527 24.4800667,20.025527 L24.4800667,20.025527 L23.5436473,20.025527 C23.4170768,20.025527 23.3162152,19.9246651 23.3162152,19.798094 L23.3162152,19.798094 L23.3161849,15.9751415 C22.5063385,15.6715482 21.9486282,14.9368538 21.97335,14.0508563 C21.97335,12.9364234 22.9107795,12 24.0241951,12 Z" id="Shape" fill="#FFFFFF"></path>
    </g>
</svg>